<svg fill="none" viewBox="0 0 14 14" id="Cyborg-2--Streamline-Flex" version="1.1" xmlns="http://www.w3.org/2000/svg">
  <desc id="desc1">
    Cyborg 2 Streamline Icon: https://streamlinehq.com
  </desc>
  <g id="cyborg-2--artificial-robotics-intelligence-machine-technology-android">
    <path id="Vector 858" d="M 4.796875,9.5351563 A 0.5,0.5 0 0 0 4.5996094,10.212891 c 0,0 0.7486336,1.240234 2.4003906,1.240234 1.6517654,0 2.4003906,-1.240234 2.4003906,-1.240234 A 0.5,0.5 0 0 0 9.203125,9.5351563 0.5,0.5 0 0 0 8.5253906,9.7304688 c 0,0 -0.333576,0.7226562 -1.5253906,0.7226562 -1.191803,0 -1.5234375,-0.7226563 -1.5234375,-0.7226562 A 0.5,0.5 0 0 0 4.796875,9.5351563 Z M 8.8339844,7.1191406 a 0.5,0.5 0 0 0 -0.5,0.5 v 0.546875 a 0.5,0.5 0 0 0 0.5,0.5 0.5,0.5 0 0 0 0.5,-0.5 v -0.546875 a 0.5,0.5 0 0 0 -0.5,-0.5 z m -3.6679688,0 a 0.5,0.5 0 0 0 -0.5,0.5 v 0.546875 a 0.5,0.5 0 0 0 0.5,0.5 0.5,0.5 0 0 0 0.5,-0.5 v -0.546875 a 0.5,0.5 0 0 0 -0.5,-0.5 z M 7,0.26367188 c -0.5286488,0 -1.0174155,0.15804198 -1.359375,0.49999999 -0.3419595,0.34195803 -0.5,0.83072553 -0.5,1.35937503 0,0.5286456 0.158041,1.0174179 0.5,1.359375 C 5.982584,3.824379 6.4713505,3.9804687 7,3.9804688 c 0.5286456,0 1.0174179,-0.1560898 1.359375,-0.4980469 0.3419571,-0.3419571 0.5,-0.8307294 0.5,-1.359375 0,-0.5286495 -0.1580424,-1.0174171 -0.5,-1.35937503 C 8.0174174,0.4217139 7.5286448,0.26367188 7,0.26367188 Z M 7,1.2636719 c 0.3411452,0 0.5322239,0.086911 0.6523437,0.2070312 0.1201199,0.1201201 0.2070313,0.3111933 0.2070313,0.6523438 0,0.3411444 -0.086911,0.5302702 -0.2070313,0.6503906 C 7.5322233,2.8935579 7.3411444,2.9804688 7,2.9804688 6.6588495,2.9804687 6.4677773,2.8935579 6.3476562,2.7734375 6.2275352,2.6533171 6.140625,2.4641913 6.140625,2.1230469 6.140625,1.7818964 6.227536,1.5908231 6.3476562,1.4707031 6.4677768,1.3505831 6.6588488,1.2636719 7,1.2636719 Z m 0,3.5507812 c -1.26105,0 -2.5971332,-0.00391 -3.78125,0.203125 C 2.3951104,5.1615938 1.752453,5.8018823 1.578125,6.609375 1.4099043,7.3885448 1.4101563,8.03475 1.4101562,9.25 c 0,1.21521 -2.511e-4,1.861427 0.1679688,2.640625 0.1743268,0.807513 0.817006,1.447785 1.640625,1.591797 1.184126,0.207065 2.5202,0.203125 3.78125,0.203125 1.26106,0 2.5971506,0.0039 3.78125,-0.203125 0.823662,-0.144008 1.466316,-0.784303 1.640625,-1.591797 0.168266,-0.779211 0.166016,-1.425415 0.166016,-2.640625 0,-1.21525 0.0022,-1.8614429 -0.166016,-2.640625 C 12.247564,5.8019017 11.604933,5.1615897 10.78125,5.0175781 9.5971598,4.8105452 8.26106,4.8144531 7,4.8144531 Z m 0,1 c 1.26106,0 2.5564052,0.00339 3.609375,0.1875 0.416317,0.072788 0.742695,0.3954727 0.833984,0.8183594 0.144334,0.6683579 0.144532,1.2144375 0.144532,2.4296875 0,1.21521 -1.97e-4,1.761298 -0.144532,2.429688 -0.09129,0.422906 -0.417646,0.745567 -0.833984,0.818359 -1.0529606,0.184134 -2.348315,0.1875 -3.609375,0.1875 -1.26105,0 -2.556381,-0.0034 -3.609375,-0.1875 C 2.974344,12.425259 2.6479338,12.102574 2.5566406,11.679688 2.4123405,11.011286 2.4101563,10.46521 2.4101563,9.25 c 0,-1.21525 0.00218,-1.7613173 0.1464843,-2.4296875 C 2.6479326,6.3974452 2.9743646,6.0747374 3.390625,6.0019531 4.4436282,5.8178451 5.73895,5.8144531 7,5.8144531 Z M 7,3 A 0.5,0.5 0 0 0 6.5,3.5 v 1.8144531 a 0.5,0.5 0 0 0 0.5,0.5 0.5,0.5 0 0 0 0.5,-0.5 V 3.5 A 0.5,0.5 0 0 0 7,3 Z" baseline-shift="baseline" display="inline" overflow="visible" vector-effect="none" fill="#262626" stroke-linecap="round" stroke-linejoin="round" enable-background="accumulate" stop-color="#000000" stop-opacity="1" opacity="1"></path>
  </g>
</svg>